0 
0 Name: New Model.ldr
0 Author: 
1 7 155 -32 190 1 0 0 0 1 0 0 0 1 95658.dat
1 7 135.2334 -41.9082 -30.5663 0 -1 0 1 0 0 0 0 1 4121715.dat
1 7 155.2045 -51.8941 -30.5663 0 1 0 -1 0 0 0 0 1 65489.dat
1 7 175.2334 -41.9082 -30.5663 0 -1 0 1 0 0 0 0 1 4121715.dat
1 7 184.6131 -32.0624 10.3591 1 0 0 0 1 0 0 0 1 4121715.dat
1 7 184.9131 -32.0624 49.944 1 0 0 0 1 0 0 0 1 4121715.dat
1 7 194.633 -32 190 1 0 0 0 1 0 0 0 1 44294.dat
1 7 215.3243 -32.2017 189.9135 0 0 1 0 1 0 -1 0 0 3713.dat
1 7 245.61 -31.8457 189.7994 0 0 1 0 1 0 -1 0 0 56145c02.dat
1 7 183.7264 -31.9909 290.2656 -1 0 0 0 1 0 0 0 -1 4206482.dat
1 7 194.633 -32 150.2285 0 -1 0 1 0 0 0 0 1 32278.dat
1 7 173.9315 -32 250.2163 1 0 0 0 1 0 0 0 1 42924.dat
1 7 174.6576 -32.0932 210.2163 0 1 0 0 0 1 1 0 0 32009.dat
1 7 164.0623 -32.4256 270.2204 1 0 0 0 1 0 0 0 1 4121715.dat
1 7 154.661 -112.2048 290.1617 0 -1 0 0 0 1 -1 0 0 32526.dat
1 7 145.7688 -91.9174 130.3967 1 0 0 0 1 0 0 0 1 32062.dat
1 7 145.1043 -92.0585 150.0775 1 0 0 0 1 0 0 0 1 4121715.dat
1 7 134.7159 -92.0012 289.9932 0 -1 0 1 0 0 0 0 1 32009.dat
1 7 134.2702 -51.5349 290.2221 1 0 0 0 1 0 0 0 1 42924.dat
1 7 125.2137 -11.6801 289.9932 1 0 0 0 1 0 0 0 1 4206482.dat
1 7 155 -92.0282 190 0 0 -1 1 0 0 0 -1 0 65489.dat
1 7 155 -101.9481 169.666 0 1 0 -1 0 0 0 0 1 4121715.dat
1 7 155 -101.9481 209.9137 0 1 0 -1 0 0 0 0 1 4121715.dat
1 7 114.913 -111.9892 190 0 0 1 0 1 0 -1 0 0 60484.dat
1 7 183.9903 -192.0921 210.2163 -1 0 0 0 0 -1 0 -1 0 4206482.dat
1 7 184.7597 -151.8987 210.2163 -1 0 0 0 0 1 0 1 0 4121715.dat
1 7 194.7823 -152.2622 210.1462 0 1 0 0 0 -1 -1 0 0 32526.dat
1 7 184.6497 -232.3477 210.2163 -1 0 0 0 0 1 0 1 0 4121715.dat
1 7 184.6497 -232.1704 170.2248 -1 0 0 0 0 1 0 1 0 4121715.dat
1 7 174.887 -232.307 110.1183 0 1 0 -1 0 0 0 0 1 32525.dat
1 7 155.2417 -122.7314 190.1195 0 1 0 -1 0 0 0 0 1 4121715.dat
1 7 114.913 -132.3848 190 0 -1 0 1 0 0 0 0 1 42924.dat
1 7 174.887 -231.9812 149.8263 -1 0 0 0 -1 0 0 0 1 32054.dat
1 7 174.887 -231.9812 109.9287 -1 0 0 0 -1 0 0 0 1 32054.dat
1 7 174.887 -231.9812 29.4647 -1 0 0 0 -1 0 0 0 1 32054.dat
1 7 174.887 -231.9812 10.1638 -1 0 0 0 -1 0 0 0 1 32054.dat
1 7 119.7678 -51.7926 289.934 0 -1 0 0 0 -1 1 0 0 32017.dat
0 !LEOCAD PIECE PIVOT  -3.2702 0 0 1 0 0 0 1 0 0 0 1
1 7 104.7572 -71.7089 289.8531 -1 0 0 0 0 -1 0 -1 0 95650.dat
1 7 103.7495 -91.734 290.2221 1 0 0 0 1 0 0 0 1 42924.dat
1 7 89.7632 -111.0186 290.0839 0 1 0 1 0 0 0 0 -1 32056.dat
1 7 174.898 -131.9308 -20.1585 0 0 1 0 1 0 -1 0 0 4121715.dat
1 7 -5.035 -32 190 1 0 0 0 1 0 0 0 1 95658.dat
1 7 74.7206 -31.9862 -30.7046 0 0 1 0 1 0 -1 0 0 32525.dat
1 7 74.7206 -131.9426 -30.1219 0 0 1 1 0 0 0 1 0 32525.dat
1 7 -25.2749 -41.9082 -30.5663 0 -1 0 1 0 0 0 0 1 4121715.dat
1 7 -5.3038 -51.8941 -30.5663 0 1 0 -1 0 0 0 0 1 65489.dat
1 7 14.7251 -41.9082 -30.5663 0 -1 0 1 0 0 0 0 1 4121715.dat
1 7 -25.5702 -131.9308 -20.1585 0 0 1 0 1 0 -1 0 0 4121715.dat
1 7 5.4991 -91.9174 130.3967 1 0 0 0 1 0 0 0 1 32062.dat
1 7 4.8781 -92.0585 150.0775 1 0 0 0 1 0 0 0 1 4121715.dat
1 7 15.0158 -92.0012 289.9932 0 -1 0 1 0 0 0 0 1 32009.dat
1 7 -35.0992 -32.0624 10.3591 1 0 0 0 1 0 0 0 1 4121715.dat
1 7 -34.7992 -32.0624 49.944 1 0 0 0 1 0 0 0 1 4121715.dat
1 7 -44.968 -32 150.2285 0 -1 0 1 0 0 0 0 1 32278.dat
1 7 -24.9946 -32.0932 210.2163 0 1 0 0 0 1 1 0 0 32009.dat
1 7 -34.6893 -31.9909 290.2656 1 0 0 0 1 0 0 0 1 4206482.dat
1 7 -24.8259 -32 250.2163 1 0 0 0 1 0 0 0 1 42924.dat
1 7 -5.0631 -112.2048 290.1617 0 -1 0 0 0 1 -1 0 0 32526.dat
1 7 24.8454 -11.6801 289.9932 -1 0 0 0 1 0 0 0 -1 4206482.dat
1 7 -5.0788 -92.0282 189.8997 0 0 1 1 0 0 0 1 0 65489.dat
1 7 -5.0788 -101.9481 210.2337 0 -1 0 -1 0 0 0 0 -1 4121715.dat
1 7 -5.0788 -101.9481 169.986 0 -1 0 -1 0 0 0 0 -1 4121715.dat
1 7 35.0082 -111.9892 189.8997 0 0 -1 0 1 0 1 0 0 60484.dat
1 7 -4.843 -122.7314 189.7802 0 -1 0 -1 0 0 0 0 -1 4121715.dat
1 7 35.0082 -132.3848 189.8997 0 1 0 1 0 0 0 0 -1 42924.dat
1 7 75.1887 -132.0488 190 0 0 -1 0 1 0 1 0 0 40490.dat
1 7 135.3232 -141.4902 190.1195 0 1 0 -1 0 0 0 0 1 4121715.dat
1 7 14.9991 -141.4902 190.1195 0 1 0 -1 0 0 0 0 1 4121715.dat
1 7 74.0744 -111.0668 250.2089 -1 0 0 0 1 0 0 0 -1 53792.dat
1 7 59.5593 -111.0186 290.0839 0 1 0 1 0 0 0 0 -1 32056.dat
1 7 73.5368 -111.3255 250.2573 1 0 0 0 1 0 0 0 1 32062.dat
1 7 83.086 -111.0186 270.0712 -1 0 0 0 1 0 0 0 -1 42924.dat
0 !LEOCAD PIECE PIVOT  -3.2702 0 0 1 0 0 0 1 0 0 0 1
1 7 44.7568 -71.7089 289.8531 -1 0 0 0 0 -1 0 -1 0 95650.dat
1 7 43.3219 -91.734 290.2221 -1 0 0 0 1 0 0 0 -1 42924.dat
1 7 74.5776 -71.7089 289.8531 -1 0 0 0 0 -1 0 -1 0 32073.dat
1 7 74.6363 -71.7089 290.1687 0 0 -1 0 -1 0 -1 0 0 3713.dat
1 7 29.9683 -52.1098 289.934 0 -1 0 0 0 -1 1 0 0 32017.dat
1 7 -44.2544 -32 189.8086 -1 0 0 0 1 0 0 0 -1 44294.dat
1 7 -64.9457 -32.2017 189.8951 0 0 -1 0 1 0 1 0 0 3713.dat
1 7 -95.2315 -31.8457 190.0092 0 0 -1 0 1 0 1 0 0 56145c02.dat
1 7 -34.6735 -231.8666 210.2163 1 0 0 0 0 -1 0 1 0 4121715.dat
1 7 -34.6735 -232.0439 170.2248 1 0 0 0 0 -1 0 1 0 4121715.dat
1 7 -24.4772 -231.9073 110.1183 0 -1 0 1 0 0 0 0 1 32525.dat
1 7 -24.5242 -232.2331 149.8263 1 0 0 0 1 0 0 0 1 32054.dat
1 7 -24.5242 -232.2331 109.9287 1 0 0 0 1 0 0 0 1 32054.dat
1 7 -24.5242 -232.2331 29.4647 1 0 0 0 1 0 0 0 1 32054.dat
1 7 -24.5242 -232.2331 10.1638 1 0 0 0 1 0 0 0 1 32054.dat
1 7 -34.4078 -192.0921 210.2163 1 0 0 0 0 -1 0 1 0 4206482.dat
1 7 -35.1772 -151.8987 210.2163 1 0 0 0 0 1 0 -1 0 4121715.dat
1 7 -44.448 -152.2622 210.1462 0 1 0 0 0 -1 -1 0 0 32526.dat
1 7 -4.8577 -131.9426 -40.3049 0 0 1 0 -1 0 1 0 0 4121715.dat
1 7 14.7068 -131.9387 -30.1279 0 0 -1 0 1 0 1 0 0 42924.dat
1 7 134.6261 -131.9387 -30.1279 0 0 -1 0 1 0 1 0 0 42924.dat
1 7 154.7286 -131.9426 -40.3049 0 0 1 0 -1 0 1 0 0 4121715.dat
1 7 134.6261 -131.9387 -50.1533 0 1 0 1 0 0 0 0 -1 42003.dat
1 7 14.6317 -131.9387 -50.1533 0 -1 0 1 0 0 0 0 1 42003.dat
1 7 35.044 -141.1573 -50.1533 0 -1 0 1 0 0 0 0 1 4206482.dat
1 7 114.8328 -141.1573 -50.1533 0 -1 0 1 0 0 0 0 1 4206482.dat
1 7 75.3461 -232.1312 70.0657 1 0 0 0 1 0 0 0 1 99141c01.dat
1 7 75.2729 -142.0876 69.8247 1 0 0 0 1 0 0 0 1 99143.dat
1 7 74.7206 -22.2256 -30.4424 0 0 1 1 0 0 0 1 0 4211807.dat
1 7 74.654 -11.9401 -30.5369 -1 0 0 0 0 -1 0 -1 0 92907.dat
1 7 74.654 7.9836 -50.515 0 0 -1 0 1 0 1 0 0 42610.dat
1 7 74.5677 8.1017 -50.6581 -1 0 0 0 0 -1 0 -1 0 32062.dat
